<?xml version="1.0" encoding="utf-8"?>
<!-- Generator: Adobe Illustrator 16.0.0, SVG Export Plug-In . SVG Version: 6.00 Build 0)  -->
<!DOCTYPE svg PUBLIC "-//W3C//DTD SVG 1.1//EN" "http://www.w3.org/Graphics/SVG/1.1/DTD/svg11.dtd">
<svg version="1.1" id="图层_1" xmlns="http://www.w3.org/2000/svg" xmlns:xlink="http://www.w3.org/1999/xlink" x="0px" y="0px"
	 width="200px" height="200px" viewBox="0 0 200 200" enable-background="new 0 0 200 200" xml:space="preserve">
<path fill="#231F20" d="M100,0.005C45.357-0.576,0.599,45.292,0,102.484c0.207,44.532,27.818,83.846,68.363,97.343
	c5.001,0.949,6.818-2.19,6.818-4.949v-17.413c-27.818,6.185-33.727-13.702-33.727-13.702c-1.853-6.242-5.79-11.578-11.092-15.033
	c-9.09-6.28,0.728-6.187,0.728-6.187c6.365,0.893,11.993,4.783,15.272,10.563c5.869,10.653,18.81,14.42,29.091,8.47
	c0.508-5.212,2.762-10.065,6.364-13.702c-22.183-2.568-45.455-11.324-45.455-50.622C36.166,87,39.784,77.071,46.455,69.562
	c-3.039-8.801-2.679-18.495,1-27.023c0,0,8.455-2.76,27.273,10.467c16.38-4.569,33.618-4.569,49.999,0
	C143.817,39.779,152,42.539,152,42.539c3.68,8.529,4.038,18.222,1.001,27.023c6.825,7.371,10.64,17.234,10.637,27.499
	c0,39.394-23.455,48.051-45.456,50.621c4.879,4.957,7.38,11.94,6.817,19.032v28.068c0,3.332,1.82,5.994,6.818,4.948
	c40.426-13.577,67.934-52.811,68.183-97.246C199.401,45.292,154.643-0.576,100,0.005"/>
</svg>
