<?xml version="1.0" encoding="utf-8"?>
<!-- Generator: Adobe Illustrator 16.0.0, SVG Export Plug-In . SVG Version: 6.00 Build 0)  -->
<!DOCTYPE svg PUBLIC "-//W3C//DTD SVG 1.1//EN" "http://www.w3.org/Graphics/SVG/1.1/DTD/svg11.dtd">
<svg version="1.1" id="图层_1" xmlns="http://www.w3.org/2000/svg" xmlns:xlink="http://www.w3.org/1999/xlink" x="0px" y="0px"
	 width="200px" height="200px" viewBox="0 0 200 200" enable-background="new 0 0 200 200" xml:space="preserve">
<g>
	<defs>
		<rect id="SVGID_1_" x="12.5" y="12.5" width="175" height="175"/>
	</defs>
	<clipPath id="SVGID_2_">
		<use xlink:href="#SVGID_1_"  overflow="visible"/>
	</clipPath>
	<path clip-path="url(#SVGID_2_)" fill="#1971C2" d="M167.891,12.5H32.109C21.367,12.5,12.5,21.367,12.5,32.109v135.781
		c0,10.742,8.867,19.609,19.609,19.609h135.781c10.742,0,19.609-8.867,19.609-19.609V32.109C187.5,21.367,178.633,12.5,167.891,12.5
		z M150.156,123.555c0,1.641-1.406,2.344-3.047,3.047c-6.523,2.813-13.516,5.352-21.016,5.352c-10.508,0-15.391-6.523-28.008-6.523
		c-9.102,0-18.672,3.281-26.367,6.758c-0.469,0.234-0.938,0.234-1.406,0.469v17.734c0,0.703,0,1.406-0.234,1.875v0.469
		c-0.938,3.281-3.984,5.586-7.461,5.586c-4.414,0-7.93-3.516-7.93-7.93V65c-3.047-2.344-5.117-6.055-5.117-10.273
		c0-7.227,5.82-13.086,13.086-13.086c7.227,0,13.086,5.82,13.086,13.086c0,4.219-1.875,7.93-5.117,10.273v7.227
		c0.703-0.234,1.406-0.469,2.109-0.938c7.227-3.047,15.859-5.586,24.023-5.586c8.867,0,15.859,2.344,23.789,5.352
		c1.641,0.703,3.281,0.938,5.117,0.938c8.867,0,18.672-6.289,21.016-6.289c1.875,0,3.516,1.406,3.516,3.047v54.805H150.156z"/>
</g>
</svg>
